<svg width="5740" height="3124" viewBox="0 0 5740 3124" fill="none" xmlns="http://www.w3.org/2000/svg">
<path d="M3410.83 14.5867C3560.61 -3.48062 3719.01 9.53581 3870.03 9.53581C3934.2 12.6786 4196.38 27.719 4260.85 27.719C4346.57 27.719 4451.97 40.4783 4534.42 64.0853C4642.03 94.8971 4673.58 113.587 4783.75 131.262C4783.75 131.262 4898.53 95.0922 4952.74 95.9059C5058.16 97.488 5170.76 126.38 5208.57 211.571C5259.05 325.306 5309.71 443.092 5386.61 543.919C5446.68 622.687 5525.77 687.754 5589.61 764.137C5655.05 842.43 5665.46 987.263 5677.55 1082.85C5697.79 1242.96 5699.53 1404.05 5720.97 1563.69C5748.98 1772.18 5726.4 1995.19 5726.4 2205.66C5726.4 2408.43 5671.86 2681.27 5437.63 2759.74C5400.13 2772.3 5339.66 2778.91 5308.45 2802.67C5293.29 2814.21 5270.87 2829.44 5252.54 2837.02C5182.62 2865.94 5127.09 2919.89 5059.84 2955.21C4932.67 3022.02 4760.52 3011.78 4620.18 2989.56C4550.3 2978.49 4451.78 2955.21 4356.79 2929.95C4261.79 2904.7 4200.84 2921.08 4143.6 2929.95C4112.9 2934.72 4022.59 2979.64 3996.31 2995.53C3916.53 3043.78 3932.94 3043.32 3841.83 3078.34C3790.56 3098.04 3706.35 3121.03 3655.09 3118.86C3564.37 3115.02 3472.34 3118.86 3381.52 3118.86C3315.12 3118.86 3250.95 3100.67 3186.11 3100.67C3013.04 3100.67 2846.88 3037.03 2673.17 3037.03C2437.22 3037.03 2198.42 3030.67 1964.82 3062.29C1839.65 3079.23 1700.7 3082.49 1574 3082.49C1505.08 3082.49 1437.92 3091.58 1368.83 3091.58C1216.06 3091.58 1059.4 3100.67 904.735 3100.67C782.418 3100.67 657.775 3110.15 538.89 3082.49C498.996 3073.21 478.864 3042.37 440.644 3032.49C386.974 3018.61 329.474 3005.53 278.891 2992.08C202.475 2971.76 94.735 2935.87 54.7158 2868.84C16.0681 2804.11 -5.79002 2714.38 41.1154 2657.31C66.3488 2626.6 43.6936 2526.42 22.6908 2482.45C-8.19404 2417.78 10.7492 2312.96 10.7492 2244.05C10.7492 2181.39 44.4891 2115.9 61.7721 2055.14C75.9208 2005.41 98.6471 1969.21 127.993 1925.84C142.722 1904.07 145.361 1862.27 146.93 1837.41L146.991 1836.44C151.023 1772.67 157.304 1710.04 157.304 1646.02C157.304 1563.18 153.299 1502.19 113.338 1427.82C66.9278 1341.45 69.3713 1263.02 69.3713 1167.7C69.3713 1107.79 62.4315 1043.7 71.5425 984.356C79.5009 932.516 111.066 885.646 117.68 833.334C127.059 759.155 125.571 679.145 142.649 606.045C158.46 538.367 153.625 463.392 181.73 399.464C213.334 327.577 246.748 233.413 303.317 174.195C332.208 143.949 375.861 125.801 401.563 95.9059C425.081 68.5506 527.286 78.9041 557.888 86.8143C670.843 116.011 787.058 138.199 899.85 173.184C982.489 198.817 1041.95 182.276 1126.74 182.276H1534.92C1648.33 182.276 1761.9 185.702 1874.71 175.205C2008.83 162.724 2153.65 171.519 2283.44 131.262C2370.77 104.173 2441.88 64.0853 2536.93 64.0853C2648.91 64.0853 2759.85 36.8106 2873.46 36.8106C3055.1 36.8106 3230.75 36.3083 3410.83 14.5867Z" stroke="white" stroke-width="10" stroke-linecap="round"/>
</svg>
