<svg width="1846" height="1139" viewBox="0 0 1846 1139" fill="none" xmlns="http://www.w3.org/2000/svg">
<path d="M1092.8 7.63105H1257.32C1333.58 0.811178 1399.26 33.9601 1437.86 61.8229C1535.66 132.418 1620.05 232.963 1681.86 336.477C1721.22 402.398 1761.8 468.213 1781.06 543.392C1793.76 592.968 1818.18 638.836 1830.66 688.724C1842.89 737.632 1839.59 788.425 1839.59 838.368C1839.59 909.047 1818.02 970.577 1788.45 1032.97C1766.85 1078.55 1696.78 1100.87 1653.23 1114.34C1605.91 1128.98 1563.11 1136.27 1514.18 1133.37C1447.68 1129.43 1386.9 1117.04 1322.33 1096.7C1269.08 1079.93 1227.55 1044.6 1176.6 1023.11C1114.42 996.885 1051.63 968.92 986.825 949.831C925.263 931.696 859.662 911.116 795.198 906.723C714.066 901.195 631.269 905.492 549.965 905.492C458.761 905.492 366.888 908.516 275.772 904.26C197.066 900.584 118.496 888.74 63.1956 827.591C4.48994 762.677 -4.5374 653.511 12.9783 569.872C27.824 498.982 80.8154 415.134 135.287 367.884C252.548 266.167 421.894 246.003 549.349 159.738C611.91 117.394 658.113 61.8104 731.733 35.9586C846.147 -4.21822 973.756 7.63105 1092.8 7.63105Z" stroke="white" stroke-width="10" stroke-linecap="round"/>
</svg>
