<svg width="907" height="1107" viewBox="0 0 907 1107" fill="none" xmlns="http://www.w3.org/2000/svg">
<path d="M327.5 214C300.441 225.838 248.544 205.14 248.544 242.355C248.544 322.743 191.725 351.108 160.59 427.215L159.706 429.375C142.545 471.33 127.046 509.224 103.091 548.35C84.6776 578.425 63.5076 606.309 46.0462 636.985C26.2851 671.7 5.1377 711.509 5.1377 752.438C5.1377 779.064 14.0883 801.282 24.2283 825.618C36.0749 854.05 46.5422 887.942 71.2731 908.117C92.9532 925.804 119.999 939.766 147.863 943.799C168.974 946.854 190.258 946.309 209.908 955.617C256.558 977.714 302.256 1002.25 349.678 1022.89C441.699 1062.94 541.022 1121.91 645.583 1094.02C727.952 1072.06 811.999 1040.25 855.126 960.162C872.236 928.385 871.012 889.036 867.398 853.8C862.869 809.642 836.593 772.723 821.717 731.529C816.895 718.175 805.6 709.357 800.581 696.529C795.845 684.427 798.763 667.708 798.763 654.939C798.763 633.966 801.181 611.703 806.945 591.531C808.823 584.955 809.496 585.175 812.5 579.5C815.431 573.963 819.093 569.7 821.717 563.577C831.802 540.045 840.481 516.114 851.035 492.896C876.714 436.402 899.138 371.388 901.034 308.808C902.687 254.251 887.776 203.419 868.307 153.355C858.638 128.492 853.568 92.3224 835.58 71.7655C819.456 53.3378 800.96 36.264 783.308 19.2663C764.592 1.24336 737.188 5.75301 713.309 6.08466C679.778 6.55038 655.575 16.6997 627.174 32.6752C600.262 47.8133 574.82 77.7929 551.494 97.9015C518.067 126.718 473.519 146.789 429.677 152.446C394.953 156.927 362.552 214 327.5 214Z" stroke="white" stroke-width="10" stroke-linecap="round"/>
</svg>
