<svg width="1099" height="558" viewBox="0 0 1099 558" fill="white" xmlns="http://www.w3.org/2000/svg">
<path d="M561.778 6.24295C567.702 6.36637 584 6.24283 593 6.24295C612.235 6.24283 618.677 12.5601 630.182 14.9681C652.998 19.7434 672.138 34.2183 697.19 36.7805C768.56 44.0797 844.729 24.491 913.745 48.6465C965.58 66.7888 966.232 142.02 989.303 185.28C1005.96 216.511 1029.48 238.271 1049.51 266.597C1066.74 290.976 1073.53 323.741 1080.92 351.928C1087.05 375.352 1101.56 412.371 1088.94 436.56C1054.15 503.24 953.277 550.085 881.811 552.428C820.949 554.424 750.835 550.619 695.794 522.589C630.353 489.262 562.009 486.773 489.535 490.481C381.945 495.985 278.208 524.334 169.851 524.334C118.304 524.334 64.332 523.787 34.7879 474.078L34.4545 473.517C23.0151 454.271 8.82876 430.404 6.51888 407.768C4.62932 389.25 5.82088 370.182 5.82088 351.579C5.82088 229.751 137.125 180.776 229.879 141.306C273.057 122.932 309.115 104.597 345.747 75.1705C384.922 43.702 428.744 15.2947 479.589 8.33695C506.533 4.64989 534.66 5.67799 561.778 6.24295Z" stroke="white" stroke-width="10" stroke-linecap="round"/>
</svg>
