<svg width="1115" height="1076" viewBox="0 0 1115 1076" fill="none" xmlns="http://www.w3.org/2000/svg">
<path d="M424.136 18.3383C483.233 3.17383 543.886 5.54696 604.281 5.54696C620.572 5.54773 631.139 5.54762 645.204 5.54748L667.5 5.54734C720.397 5.54734 733.67 7.63294 775.187 37.5252C792.572 50.0422 805.637 70.6711 816.883 88.4291L816.936 88.5129C834.095 115.605 853.645 144.483 864.548 174.677C880.417 218.622 894.966 259.774 919.089 300.635C945.988 346.199 967.367 399.111 1000.81 440.274C1012.92 455.182 1028.17 466.39 1041.67 479.892C1066.13 504.349 1082.84 539.827 1096.75 571.03C1109.25 599.07 1109.39 630.378 1109.53 660.532L1109.54 661.457C1109.71 698.084 1108.51 733.917 1104.92 770.361C1100.2 818.204 1093.08 859.107 1074.54 903.604C1065.56 925.162 1066.51 927.365 1053.5 946C1043.7 960.031 1031.92 978.555 1019.64 990.833C991.155 1019.32 953.942 1033.31 917.668 1049.64C881.446 1065.94 848.228 1078.21 808.409 1065.27C722.88 1037.48 638.419 1011.56 548.141 1030.45C502.549 1039.99 458.287 1051.8 413.122 1063.32C362.935 1076.11 303.382 1067.23 251.809 1067.23C194.6 1067.23 158.536 1054.34 119.987 1010.73C107.79 996.934 92.3505 988.254 79.8368 974.489C61.2959 954.094 50.2138 925.703 35.7778 902.36C25.3635 885.52 9.55391 866.271 6.8197 846.221C3.26651 820.164 8.28563 790.951 10.1952 764.854C16.2072 682.689 51.1038 598.58 37.5544 515.778C33.3057 489.814 25.4673 465.033 22.9865 438.675C20.3854 411.038 21.7971 382.237 22.2759 354.466C23.2518 297.86 50.7635 235.64 78.0602 187.113C93.2775 160.06 114.363 136.385 143.083 123.867C178.244 108.54 216.81 102.332 252.52 88.6905C309.883 66.7765 364.549 33.6286 424.136 18.3383Z" stroke="white" stroke-width="10" stroke-linecap="round"/>
</svg>
