<svg width="2849" height="1829" viewBox="0 0 2849 1829" fill="white" xmlns="http://www.w3.org/2000/svg">
<path d="M2015.83 15.3736C2218.45 -11.3284 2440.42 10.7203 2614.3 123.233C2656.26 144.212 2682.21 184.3 2701.56 226.224C2723.46 273.667 2746.79 320.947 2764.11 371.161C2778.05 411.597 2789.2 451.288 2801.56 492.503C2814.52 535.69 2843.5 564.864 2843.5 611.972C2843.5 662.942 2837.55 712.469 2833.77 763.276C2830.23 810.733 2833.74 843.524 2797.07 876.004C2740.93 925.72 2681.57 969.375 2625.54 1019.44C2555.89 1081.68 2508.69 1164.15 2475.73 1250.52C2416.61 1405.47 2350.58 1700.61 2146.16 1707.42C2113.75 1708.5 2081.14 1699.5 2049.54 1693.94C1980.88 1681.87 1910.9 1679.85 1841.31 1680.46C1708.13 1681.61 1574.69 1695.58 1442.08 1706.67C1390.93 1710.95 1340.8 1709.21 1296.02 1735.14C1140.3 1825.29 965.027 1832.49 789.303 1818.28C722.155 1812.85 644.01 1802.47 581.823 1774.83C561.917 1765.99 545.515 1743.48 527.518 1731.02C485.455 1701.9 442.501 1666.4 394.941 1646.75C344.164 1625.78 291.053 1611.4 245.51 1579.71C211.632 1556.15 153.253 1501.83 145.516 1460.24C136.475 1411.65 127.28 1363.39 114.805 1314.93C107.039 1284.76 85.0493 1264.32 69.1149 1239.28C21.9488 1165.16 5.44777 1066.73 5.44777 979.369C5.44777 922.824 2.44325 857.961 18.9302 803.348C36.2978 745.818 83.1435 702.636 109.937 649.049C148.68 571.562 196.055 505.393 249.63 436.326C327.055 336.513 440.449 309.459 557.854 281.652C672.862 254.414 778.811 215.951 886.302 168.924C968.652 132.896 1045.82 136.716 1134.23 136.716C1236.84 136.716 1339.03 138.5 1441.33 129.975C1537.33 121.975 1624.8 98.1916 1716.6 72.2996C1812.17 45.3419 1917.25 28.3646 2015.83 15.3736Z" stroke="white" stroke-width="10" stroke-linecap="round"/>
</svg>
