<svg width="1574" height="2137" viewBox="0 0 1574 2137" fill="white" xmlns="http://www.w3.org/2000/svg">
<path d="M1292.98 170.331C1365.38 169.561 1425.61 165.541 1482 216C1497.42 229.796 1493.69 225.097 1511 238.5C1539.21 260.341 1548.16 278.95 1553.65 315.56C1562.02 371.361 1563.47 427.161 1567.35 483.399C1569.75 518.134 1570.11 540.53 1555.18 572.102C1546.68 590.065 1538.46 608.27 1529.52 626.019C1501.47 681.691 1459.22 726.833 1429.08 781.249C1375.26 878.411 1363.55 994.28 1369.94 1103.01C1372.67 1149.4 1376.54 1195.79 1379.51 1242.16C1381.22 1268.81 1409.17 1298.35 1424.51 1318.47C1458.19 1362.62 1501.91 1394.09 1522.56 1446.95C1544.61 1503.39 1548.94 1554.09 1547.57 1613.92C1545.94 1684.86 1540.01 1763.03 1517.35 1830.46C1500.07 1881.87 1453.57 1926.91 1413.43 1961.34C1372.57 1996.39 1331.68 2010.89 1279.94 2021.57C1245.57 2028.66 1211.35 2034.95 1176.23 2036.57C1167 2036.99 1158.97 2039.17 1149.77 2041.66L1148.5 2042C1143.88 2043.25 1132.49 2047.94 1128.62 2050.48C1113.45 2060.41 1096.9 2068.82 1080.36 2076.13C1031.36 2097.8 972.513 2125.61 918.603 2130.05C882.677 2133.01 844.38 2131.42 809.029 2124.18C744.826 2111.03 686.835 2072.91 625.971 2049.61C471.622 1990.51 232.896 1922.46 232.896 1718.93C232.896 1648.29 199.061 1588.35 150.498 1539.79C140.517 1529.81 131.912 1521.41 122 1511.5C114.771 1504.27 108.218 1497.02 100.712 1490C77.8254 1468.59 50.4237 1442.71 34.1847 1415.65C-7.89209 1345.52 3.00867 1249 21.1402 1173.45C35.2058 1114.85 58.2926 1061.79 85.7106 1008.44C106.861 967.283 138.146 932.895 159.412 892.562C173.985 864.923 193.763 832.712 193.763 800.381C193.763 771.425 188.324 739.609 182.892 711.243C176.345 677.054 156.44 644.789 147.672 610.366C124.104 517.838 128.848 420.958 156.803 330.778C176.006 268.834 201.097 205.271 233.983 149.242C263.215 99.4394 310.453 78.7612 364.646 64.2353C423 48.594 478.621 27.7617 538.138 15.9706C588.334 6.02614 637.624 5.96981 688.585 5.96981C728.003 5.96981 768.431 3.6049 807.725 6.83944C861.148 11.2371 912.02 29.0183 962.253 46.5764L964.259 47.2774C1009.15 62.9647 1050.48 82.4597 1089 111.5C1103.48 122.413 1114.28 139.371 1129.5 149.242C1153.42 164.755 1180.77 183.607 1210.16 185.115C1234.18 186.346 1269.05 170.585 1292.98 170.331Z" stroke="white" stroke-width="10" stroke-linecap="round"/>
</svg>
