<svg width="1648" height="911" viewBox="0 0 1648 911" fill="none" xmlns="http://www.w3.org/2000/svg">
<path d="M890.322 31.184C952.705 -20.5665 1025.45 19.1889 1093.72 26.0106C1199.13 26.0106 1260.77 42.8145 1363.68 59.2681C1475.34 77.1206 1587.02 123.43 1615.89 241.445C1622.91 270.13 1633.97 300.349 1639.19 329.023C1657.91 431.936 1604.09 562.582 1555.61 649.773C1521.45 711.207 1456.79 763.484 1396.22 797.215C1340.35 828.335 1279.48 866.617 1219.82 889.227C1144.02 917.957 1047.11 905.18 971.31 885.162C889.082 863.447 837.565 836.34 777.53 782.064C687.066 700.279 536.401 664.554 418.444 664.554C318.826 664.554 198.976 684.017 111.501 624.645C68.6823 595.583 36.097 531.232 16.8297 483.486C-3.66497 432.698 8.69383 354.64 8.69383 301.678C8.69383 243.443 29.0787 165.277 71.5616 122.827C131.153 63.2809 225.048 59.5914 303.063 71.093C358.474 79.2622 409.319 108.285 462.821 124.305C550.761 150.637 629.827 164.932 719.469 145.738C748.041 139.62 785.333 134.869 808.963 116.175C840.049 91.5844 860.19 56.1797 890.322 31.184Z" stroke="white" stroke-width="10" stroke-linecap="round"/>
</svg>
