<svg width="2380" height="1753" viewBox="0 0 2380 1753" fill="white" xmlns="http://www.w3.org/2000/svg">
<path d="M189.549 312.582C188.69 231.921 184.213 164.818 240.43 101.986C255.8 84.8069 250.565 88.9634 265.498 69.6753C289.832 38.2438 310.564 28.271 351.352 22.1526C413.522 12.827 475.691 11.2137 538.347 6.89243C577.046 4.22349 601.998 3.81467 637.174 20.457C657.187 29.926 677.469 39.0766 697.244 49.0398C759.269 80.2896 809.564 127.363 870.19 160.948C978.441 220.916 1107.53 233.96 1228.68 226.834C1280.36 223.793 1332.04 219.487 1383.7 216.175C1413.39 214.272 1446.31 183.125 1468.72 166.035C1517.91 128.517 1552.97 79.8 1611.87 56.7909C1674.74 32.2314 1731.23 27.4024 1797.9 28.935C1876.93 30.7519 1964.02 37.354 2039.15 62.6043C2096.43 81.8542 2146.6 133.665 2184.97 178.388C2224.01 223.906 2240.17 269.468 2252.06 327.115C2259.96 365.402 2266.98 403.534 2268.78 442.657C2269.25 452.938 2271.67 461.891 2274.45 472.135L2274.83 473.555C2276.22 478.706 2281.45 491.387 2284.28 495.704C2295.34 512.604 2304.71 531.047 2312.86 549.478C2337 604.062 2367.99 669.631 2372.93 729.695C2376.23 769.721 2374.46 812.39 2366.39 851.776C2351.74 923.308 2309.27 987.919 2283.31 1055.73C2217.47 1227.7 2141.65 1493.68 1914.89 1493.68C1836.19 1493.68 1769.41 1531.37 1715.3 1585.48C1704.18 1596.6 1694.83 1606.19 1683.78 1617.23C1675.73 1625.28 1667.66 1632.59 1659.83 1640.95C1635.98 1666.45 1607.15 1696.98 1576.99 1715.07C1498.86 1761.95 1391.33 1749.8 1307.16 1729.6C1241.86 1713.93 1182.76 1688.21 1123.31 1657.66C1077.46 1634.1 1039.14 1599.24 994.208 1575.55C963.414 1559.31 927.527 1537.28 891.506 1537.28C859.245 1537.28 823.798 1543.34 792.195 1549.39C754.104 1556.68 718.156 1578.86 679.804 1588.63C576.716 1614.89 468.78 1609.6 368.308 1578.45C299.294 1557.06 228.476 1529.1 166.053 1492.46C110.567 1459.9 87.5283 1407.27 71.3446 1346.89C53.9181 1281.87 30.7082 1219.9 17.5714 1153.59C6.49198 1097.66 6.42923 1042.75 6.42922 985.97C6.42922 942.052 3.79441 897.009 7.3981 853.23C12.2977 793.708 32.1082 737.029 51.6702 681.062L52.4513 678.827C69.9289 628.816 91.6488 582.767 124.003 539.847C136.162 523.718 155.056 511.684 166.053 494.724C183.336 468.07 204.34 437.603 206.02 404.858C207.392 378.098 189.832 339.243 189.549 312.582Z" stroke="white" stroke-width="10" stroke-linecap="round"/>
</svg>
