<svg width="2684" height="2954" viewBox="0 0 2684 2954" fill="none" xmlns="http://www.w3.org/2000/svg">
<path d="M1492.89 5.10352C1589.29 5.10352 1674.02 21.6637 1769.17 36.3027C1823.93 36.3027 1876.77 50.1975 1925.17 73.7418C2028.61 124.066 2122.08 182.03 2148.42 304.616C2160.75 362.031 2160.54 428.039 2152.92 485.918C2151.38 497.622 2140.8 501.23 2138.71 513.304C2121.42 613.192 2153.08 726.093 2212.2 805.19C2273.77 887.561 2365.11 958.749 2442.38 1026.36C2515.86 1090.65 2607.58 1150.73 2648.99 1241.98C2673.56 1296.11 2682.06 1352.58 2677.07 1411.5C2667.75 1521.5 2654.57 1631.17 2645.52 1741.17C2635.17 1867.02 2627.22 1986.77 2580.35 2106.54C2510.67 2284.63 2339.6 2402.51 2168.52 2474.7C2082.02 2511.2 2179.55 2648.93 2091.69 2681.87C2053.77 2696.09 2053.87 2702.37 2039 2741.5C1997.74 2850.08 1747.37 2883.85 1627.04 2920.5C1476.9 2966.22 1287.99 2958.1 1153.51 2872.66C1110.77 2845.51 1114.18 2790.35 1069 2769.35C1051.77 2752.55 960.514 2776.48 937.887 2769.35C868.5 2747.5 807.463 2725.27 739.5 2698.5C670.128 2671.17 609.962 2604.79 540.617 2575.92C462.268 2543.3 378.058 2525.84 300.73 2491.33C262.094 2474.1 218.944 2448.49 201.585 2407.44C168.669 2329.6 171.78 2234.27 174.481 2151.52L174.546 2149.53C175.586 2117.65 178.338 2087.21 186.679 2056.63C230.999 1894.12 306.121 1743.6 324.302 1574.77C343.414 1397.31 268.036 1223.24 150.973 1092.57C121.47 1059.64 93.0144 1024.56 62.5755 994.119C33.2285 964.772 24.2006 904.939 13.0034 866.549C-5.9409 801.597 14.7909 715.265 22.0165 650.234C35.9865 524.504 115.021 417.024 229.318 362.161C285.896 335.004 348.865 320.805 409.58 306.349C425.351 302.594 457.27 291.636 476.139 293.523C497.86 295.695 519.424 287.257 540.233 279.114L540.617 278.963C612.017 251.024 680.401 226.245 755.198 207.898C818.212 192.442 877.664 169.328 939.62 151.393C1012.65 130.254 1074.89 87.2998 1145.54 61.6088C1262.15 19.2053 1369.76 5.10352 1492.89 5.10352Z" stroke="white" stroke-width="10" stroke-linecap="round"/>
</svg>
