<svg width="1596" height="931" viewBox="0 0 1596 931" fill="none" xmlns="http://www.w3.org/2000/svg">
<path d="M944.602 7.33029H1086.7C1152.57 1.76798 1209.3 28.8043 1242.64 51.5293C1327.12 109.107 1400.01 191.112 1453.4 275.538C1487.4 329.303 1522.45 382.983 1539.09 444.298C1550.06 484.733 1571.15 522.143 1581.93 562.832C1592.5 602.721 1589.65 644.148 1589.65 684.882C1589.65 742.528 1571.02 792.712 1545.48 843.596C1526.81 880.777 1466.29 898.981 1428.68 909.968C1387.81 921.906 1350.84 927.853 1308.57 925.489C1251.13 922.277 1198.63 912.165 1142.85 895.58C1096.86 881.904 1060.99 853.086 1016.98 835.56C963.273 814.169 909.036 791.36 853.061 775.791C799.886 761 743.223 744.215 687.541 740.633C617.463 736.123 545.946 739.628 475.719 739.628C396.941 739.628 317.585 742.094 238.882 738.624C170.899 735.626 103.033 725.965 55.2671 676.092C4.55943 623.148 -3.23803 534.112 11.8913 465.895C24.7144 408.078 70.4863 339.691 117.536 301.153C218.822 218.193 365.096 201.748 475.187 131.389C529.224 96.8536 569.133 51.5192 632.723 30.4343C731.549 -2.33401 841.773 7.33029 944.602 7.33029Z" stroke="white" stroke-width="10" stroke-linecap="round"/>
</svg>
