<svg width="1537" height="808" viewBox="0 0 1537 808" fill="none" xmlns="http://www.w3.org/2000/svg">
<path d="M265.746 108.792C233.532 112.821 160.437 148.101 115.199 169.008C2.73983 206.511 -11.7534 269.679 19.1515 389.918C55.8976 532.881 200.702 598.559 269.917 723.2C305.58 787.422 398.752 803 466.462 803C583.245 803 684.877 743.986 795.95 720.592C955.294 687.031 1119.66 682.822 1278.71 645.486C1333.48 632.631 1416.3 607.62 1447.11 553.69C1464.93 522.485 1478.39 487.435 1494.55 455.114C1550.22 343.722 1541.12 245.565 1485.16 140.608C1431.14 39.2747 1356.13 5 1245.87 5C1127.4 5 1035.23 61.5761 924.2 87.4078C851.718 104.271 796.323 127.047 719.834 127.047C651.041 127.047 581.273 117.659 514.426 117.659C432.389 117.659 348.852 98.3994 265.746 108.792Z" stroke="white" stroke-width="10" stroke-linecap="round"/>
</svg>
