<svg width="896" height="477" viewBox="0 0 896 477" fill="none" xmlns="http://www.w3.org/2000/svg">
<path d="M343.493 35.1686C431.519 -3.87519 528.79 7.21687 622.647 7.21687C649 7.21714 664.485 10.9997 677 10.9997C724.411 10.9997 750.805 19.4864 794.35 35.8946C828.65 48.819 868.44 70.2119 883.106 105.411C902.901 152.918 879.997 194.903 846.079 226.656C792.446 276.865 759.308 344.084 707.954 395.999C689.536 414.619 666.553 424.642 643.701 436.656C618.301 450.011 583.358 467.557 554.764 470.416C491.175 476.775 439.566 458.821 382.698 431.937C360.947 421.655 339.013 406.865 315.36 401.263C291.923 395.712 264.812 399.267 240.943 399.267C195.898 399.267 148.57 402.288 104.996 388.013C72.1593 377.256 37.5847 364.966 20.778 332.473C-2.18504 288.078 3.10994 239.468 19.8705 192.714C43.0348 128.098 132.956 131.663 187.036 112.308C215.55 102.103 246.767 90.1293 273.069 75.0995C296.53 61.6936 318.657 46.1845 343.493 35.1686Z" stroke="white" stroke-width="10" stroke-linecap="round"/>
</svg>
