<svg width="592" height="535" viewBox="0 0 592 535" fill="white" xmlns="http://www.w3.org/2000/svg">
<path d="M170.723 6.99994C203.733 6.99994 248.835 -0.0557842 274.918 17.3333C298.282 32.9093 291.947 67.2226 309.075 89.6666C333.466 121.627 370.396 102.088 396.335 82.6342C432.063 55.838 470.459 23.4713 517.751 34.5555C540.391 39.8617 569.63 62.1152 583.196 80.7685C592.487 93.5443 582.055 117.432 576.45 129.278C567.505 148.185 553.996 164.044 539.566 178.935C519.412 199.733 491.918 224.58 491.918 255.574C491.918 280.296 490.411 304.814 500.242 328.051C516.53 366.549 538.815 393.467 542.436 437.268C544.407 461.107 549.704 497.226 532.677 517.926C520.649 532.549 493.579 530.296 477.566 524.958C434.92 510.743 407.579 473.971 398.918 430.667C393.778 404.966 386.242 379.428 378.251 354.458C373.296 338.973 371.307 322.665 361.603 309.537C350.424 294.412 345.315 278.044 325.149 278.25C293.797 278.57 268.937 285.416 240.186 297.625C178.71 323.731 93.8084 391.789 27.2049 343.407C16.4236 335.576 6.25119 325.242 6.25119 311.833C6.25119 301.539 3.28645 286.787 9.26508 277.819C18.0424 264.653 30.2814 250.769 42.5614 240.792C55.0348 230.657 52.7512 218.551 52.7512 203.333C52.7512 188.228 53.4964 173.205 45.0012 159.991C37.8844 148.92 37.2512 138.392 37.2512 125.259C37.2512 85.0744 72.7716 45.2403 106.14 27.0925C127.321 15.5732 146.557 6.99994 170.723 6.99994Z" stroke="white" stroke-width="10" stroke-linecap="round"/>
</svg>
