<svg width="640" height="384" viewBox="0 0 640 384" fill="white" xmlns="http://www.w3.org/2000/svg">
<path d="M333.918 377.872C390.521 374.574 358.432 292.783 420.405 315.628C443.446 324.122 460.716 362.755 495.705 343.757C512.133 338.247 535.847 309.054 548.435 309.861C582.541 312.047 654.685 332.279 628.749 275.355C609.047 232.112 512.659 232.876 473.86 222.406C441.82 213.761 428.12 198.464 478.786 170.673C487.235 166.963 514.062 142.194 515.939 133.12C542.729 75.4702 422.395 88.1507 414.856 84.723C380.497 80.2824 359.875 103.609 341.791 62.4332C337.202 51.9833 348.686 25.519 336.04 17.9214C318.362 7.30094 299.863 9.92412 280.528 5.9255C246.406 -1.13124 212.158 64.3009 200.065 87.4056L199.883 87.754C173.856 137.476 103.194 61.3591 58.8907 80.8164C26.1045 95.2156 13.9275 131.146 7.48977 162.275C-1.33335 204.939 18.7054 205.036 57.8457 225.524C96.1393 245.569 130.41 206.537 167.478 206.364C208.687 206.172 191.571 269.401 207.199 303.701C233.008 360.346 265.273 381.871 333.918 377.872Z" stroke="white" stroke-width="10" stroke-linecap="round"/>
</svg>
