<svg width="785" height="996" viewBox="0 0 785 996" fill="blue" xmlns="http://www.w3.org/2000/svg">
<path d="M105.181 988.662C55.0788 978.115 19.0803 940.838 5.92885 891.756C8.84893 877.486 8.31671 870.63 10.5577 856.279C13.7811 835.637 13.8036 813.589 23.2062 794.469C37.3692 765.668 56.2004 739.245 71.0767 710.807C82.4728 689.021 71.1486 664.153 60.6255 643.867C42.8309 609.563 23.2801 578.94 18.4026 539.434C13.1451 496.85 37.8273 447.332 68.3414 418.522C125.63 364.432 182.958 483.192 243.06 465.545C278.935 455.011 334.91 438.341 350.587 398.759C364.621 363.325 357.698 319.582 362.784 282.118C375.222 190.482 393.69 100.652 480.304 51.6317C541.945 16.7452 614.969 4.08747 685.104 5.15392C710.266 5.53651 738.064 9.11608 757.829 25.8318C801.432 62.7082 769.874 159.189 734.33 190.23C707.685 213.499 675.335 225.39 641.906 234.347C610.64 242.725 583.325 257.996 555.234 273.701L554.203 274.278C527.771 289.054 503.829 296.448 491.857 326.401C477.163 363.161 489.375 401.626 499.078 437.84L525.641 536.975C535.538 573.91 549.453 628.411 535.724 665.903C521.179 705.624 471.497 697.077 439.664 699.858C426.788 700.983 418.264 700.917 405.422 696.071C383.679 687.865 360.05 676.953 336.543 680.205C308.513 684.082 276.825 694.107 256.057 714.368C227.74 741.993 203.633 787.418 197.929 826.52C194.682 848.777 196.735 874.149 196.457 896.655C196.122 923.727 201.144 976.823 169.119 985.405C149.205 990.74 125.613 992.962 105.181 988.662Z" stroke="white" stroke-width="10" stroke-linecap="round"/>
</svg>
