<svg width="1108" height="827" viewBox="0 0 1108 827" fill="white" xmlns="http://www.w3.org/2000/svg">
<path d="M5.02245 380.823C4.05808 336.013 34.132 291.569 101.835 266.246C205.479 254.061 202.01 229.663 289.372 291.569C340.014 327.455 376.741 327.33 431.546 295.23C513.639 247.149 523.913 190.016 567.19 113.975C657.136 -44.068 896.436 -11.7285 1012.3 93.836C1080.63 156.089 1143.9 302.704 1069.57 382.196C1032.15 422.221 955.856 423.817 904.29 435.749C843.027 449.924 782.166 460.923 720.417 472.824C589.734 498.01 576.007 620.756 528.004 714.955C465.414 837.778 295.388 834.847 171.311 804.209C-3.89158 760.946 7.70531 505.483 5.02245 380.823Z" stroke="white" stroke-width="10" stroke-linecap="round"/>
</svg>
