<svg width="987" height="553" viewBox="0 0 987 553" fill="white" xmlns="http://www.w3.org/2000/svg">
<path d="M30.0062 483.779C98.8035 567.06 180.04 544.867 275.554 544.867C315.557 544.867 363.748 508.022 380.66 474.197C398.469 438.58 403.697 404.635 437.256 378.972C480.444 345.946 537.717 337.203 589.376 355.016C632.384 369.847 663.974 396.645 711.551 403.527C793.349 415.359 889.929 394.073 954.404 340.343C986.381 313.696 989.984 284.646 962.788 251.407C942.459 226.561 943.709 220.265 910.834 220.265C895.946 220.265 846.487 271.05 833.834 283C798.39 316.475 756.894 253.719 732.512 220.265C678.2 145.743 669.004 5.85938 553.442 5.85938C511.076 5.85938 439.921 34.9303 442.646 86.7105C444.999 131.414 525.007 139.539 528.887 178.342C539.168 281.143 402.194 317.576 325.262 323.275C241.686 329.466 138.331 285.138 62.0472 332.558C7.28415 366.6 -15.8239 428.301 30.0062 483.779Z" stroke="white" stroke-width="10" stroke-linecap="round"/>
</svg>
