<svg width="865" height="585" viewBox="0 0 865 585" fill="none" xmlns="http://www.w3.org/2000/svg">
<path d="M107.573 73.9906C204.835 22.499 346.685 53.7389 302.335 101.5C256.835 150.5 313.281 178.426 382.846 177.286C512.91 175.154 560.137 29.1434 681.645 8.01146C717.422 1.78951 762.213 6.97008 796.027 19.3685C837.092 34.4256 867.958 46.5609 857.68 96.1639C843.526 164.471 814.148 178.24 750.058 190.806C691.561 202.276 561.547 278.095 615.666 352.509C641.942 388.639 676.312 415.121 693.003 458.238C716.103 517.913 694.333 579.11 626.212 579.11C556.84 579.11 478.445 537.069 464.78 464.187C457.583 425.807 460.785 388.626 430.168 359.54C409.957 340.34 389.518 323.101 362.296 314.652C294.752 293.691 221.694 294.309 151.919 288.152C87.4718 282.466 -14.087 261.894 9.41518 177.286C22.1961 131.274 66.1147 95.939 107.573 73.9906Z" stroke="white" stroke-width="10" stroke-linecap="round"/>
</svg>
