<svg width="908" height="933" viewBox="0 0 908 933" fill="white" xmlns="http://www.w3.org/2000/svg">
<path d="M362.779 177.311C396.27 124.982 424.294 58.5106 468.315 14.4897C480.913 1.89201 494.159 4.00939 514.315 8.48856C537.093 13.5503 526.965 100.838 526.965 118.347C526.965 159.638 470.577 204.288 510.699 244.409C560.946 294.656 609.265 182.442 636.761 154.945C659.19 132.517 888.399 13.4977 892.952 90.8976C899.946 209.802 829.267 268.334 735.374 326.756C690.513 354.669 609.312 375.689 609.312 438.585C609.312 469.532 623.547 518.672 664.21 500.6C695.09 486.876 717.083 459.416 737.407 434.01C756.333 410.354 800.941 411.136 828.904 411.136C848.009 411.136 909.356 408.227 901.593 443.16C889.755 496.434 803.505 568.323 764.856 601.246C711.763 646.474 650.833 713.076 577.288 713.076C543.405 713.076 503.094 706.402 472.067 720.192C391.907 755.818 357.816 790.631 314.489 868.62C274.103 941.316 176.875 932.134 106.08 916.402C9.79652 895.005 2.75177 864.509 5.43331 767.974C8.53285 656.39 83.0074 722.225 151.828 722.225C247.534 722.225 340.817 617.572 378.537 539.232C401.113 492.343 395.641 437.757 349.054 411.136C322.948 396.218 334.822 344.287 334.822 319.64C334.822 263.595 331.613 226.009 362.779 177.311Z" stroke="white" stroke-width="10" stroke-linecap="round"/>
</svg>
