<svg width="853" height="896" viewBox="0 0 853 896" fill="white" xmlns="http://www.w3.org/2000/svg">
<path d="M215.213 285.103C219.013 243.302 290.372 215.032 326.907 215.032C356.586 215.032 387.04 224.692 416.742 220.123C440.879 216.409 458.328 169.525 465.552 150.95C472.153 133.977 469.573 116.043 456.568 103.038C424.153 70.6232 375.301 42.2665 333.196 23.984C279.337 0.59799 186.632 -5.44873 136.757 30.5719C100.368 56.8533 65.6816 69.3561 50.8156 118.909C40.4133 153.584 14.6561 190.712 10.6895 226.411C7.83776 252.077 5 280.38 5 306.065C5 360.835 45.427 411.31 70.8787 457.585C76.1711 467.208 88.0751 473.106 96.6312 479.146C116.805 493.386 129.54 513.556 141.549 534.843C155.735 559.992 166.702 586.092 166.702 615.095C166.702 645.396 161.312 674.706 161.312 704.93C161.312 741.823 151.312 794.685 175.087 827.105C232.336 905.173 355.133 905.097 430.816 858.846C459.828 841.117 484.33 808.117 502.683 780.391C534.513 732.309 585.056 704.506 635.639 679.776C702.176 647.247 806.182 646.056 836.868 565.986C871.686 475.132 813.995 371.022 716.49 377.932C618.17 384.9 540.335 437.347 447.285 457.286C385.765 470.469 296.064 443.734 296.064 368.35C296.064 338.467 304.306 295.883 263.724 295.883C244.298 295.883 215.213 295.461 215.213 274.323" stroke="white" stroke-width="10" stroke-linecap="round"/>
</svg>
