<svg width="624" height="923" viewBox="0 0 624 923" fill="white" xmlns="http://www.w3.org/2000/svg">
<path d="M157.285 335.36C105.039 323.486 49.1235 308.15 8.75523 377.152C-0.165527 392.4 9.80062 398.212 30.2158 397.483C49.1334 396.807 66.6691 392.07 86.1261 392.4C110.096 392.806 133.98 400.722 151.073 417.814C164.97 431.711 183.225 462.164 166.038 480.783C138.189 510.953 94.9094 534.004 75.1135 570.296C54.6235 607.861 52.3159 657.138 55.0648 699.06C57.9721 743.396 86.4982 772.945 117.752 802.409C163.186 845.241 218.87 904.735 284.354 913.665C328.426 919.675 379.375 918.039 422.718 908.582C494.8 892.855 534.819 810.564 531.997 741.416C531.035 717.849 531.997 695.5 512.835 684.941C504.834 680.533 473.991 680.007 467.834 680.5C440.555 682.682 422.352 688.222 402.669 704.99C374.117 729.312 350.718 733.37 313.721 732.945C277.238 732.525 238.089 729.139 243.692 684.941C249.881 636.116 259.878 593.818 293.955 557.307C365.707 480.429 465.708 445.982 539.621 372.069C568.626 343.064 589.662 315.169 605.697 277.191C620.708 241.639 618.686 210.846 618.686 172.147C618.686 128.139 612.888 46.697 567.294 23.8999C524.215 2.36025 467.948 0.404788 422.718 14.5815C409.665 18.6725 351.835 51.4998 338.835 66.9998C297.721 105.5 334.456 199.726 395.045 209.421C419.811 213.383 430.375 223.606 441.072 245C465.319 293.493 424.156 334.076 379.232 356.538C302.152 395.078 231.648 352.261 157.285 335.36Z" stroke="white" stroke-width="10" stroke-linecap="round"/>
</svg>
