<svg width="718" height="775" viewBox="0 0 718 775" fill="none" xmlns="http://www.w3.org/2000/svg">
<path d="M11.4679 431.36C2.85829 409.221 -1.34377 235.163 41.9583 229.75C63.5215 229.75 73.0475 241.141 83.3345 254C96.998 271.079 78.2368 308.154 103.561 308.154C141.115 308.154 126.621 265.439 121.607 235.351C115.008 195.758 103.561 163.144 103.561 123.034C103.561 86.4322 117.657 5.73926 165.164 5.73926C185.451 5.73926 199.692 16.6849 215.567 29.3849C251.914 58.4629 288.625 86.6519 327.573 112.145C365.17 136.754 400.248 162.313 387.931 212.95C377.257 256.831 343.197 281.329 313.572 310.954C295.035 329.492 259.561 338.387 255.08 369.757C250.039 405.043 269.496 392.158 291.171 392.158C314.141 392.158 336.04 380.958 358.685 380.958C388.657 380.958 423.425 376.589 450.779 362.913C466.177 355.213 481.603 348.469 495.892 338.645C514.719 325.701 531.56 301.263 552.828 292.598C573.209 284.295 589.424 270.314 604.786 254.952L605.767 253.971C624.286 235.443 641.171 218.55 669.189 218.55C691.153 218.55 721.901 223.023 709.636 252.151C676.216 331.525 607.942 385.644 516.737 392.158C464.578 395.884 352.091 440.883 403.487 506.964C458.906 578.216 351.472 613.865 299.571 639.815C278.354 650.424 255.59 641.534 233.612 655.371C201.904 675.336 172.147 693.191 145.563 719.775C131.948 733.39 122.431 751.767 106.362 764.266C99.6364 769.496 51.8934 771.852 47.5586 764.266C40.6157 752.116 26.079 751.284 25.1575 733.775C24.3758 718.924 25.1575 703.841 25.1575 688.973C25.1575 661.325 35.2056 633.145 54.4034 611.814C87.8183 574.686 24.6797 465.333 11.4679 431.36Z" stroke="white" stroke-width="10" stroke-linecap="round"/>
</svg>
