<svg width="222" height="229" viewBox="0 0 222 229" fill="none" xmlns="http://www.w3.org/2000/svg">
<path d="M153.33 9.06581C169.283 -0.0121134 188.349 -2.97891 204.343 3.42715C210.228 5.31994 211.924 11.3415 206.065 15.7027C198.131 21.6086 176.925 12.4197 177.817 25.7716C178.27 32.5343 187.194 34.7034 192.452 37.2165C197.588 39.6711 203.118 41.8947 207.804 45.1079C216.758 51.2465 220 63.4725 220 73.4893C220 108.191 185.279 111.964 156.334 112.98C147.23 113.299 137.507 109.767 129.053 106.504C127.431 105.878 122.267 101.116 121.358 98.9336C119.93 95.5028 123.139 90.6805 124.527 88.5968C128.958 81.9455 135.232 85.9657 143.421 85.7521C157.245 85.3916 163.725 92.1536 175.665 84.4727C184.649 78.6933 194.613 64.7243 183.652 55.4913C177.555 50.3551 167.966 50.0986 160.409 48.6613C153.646 47.3752 148.484 44.6923 142.18 41.8632C135.208 38.734 136.016 29.4081 138.026 23.9257C140.368 17.5403 147.534 12.3646 153.33 9.06581Z" fill="#D3B99F"/>
<path d="M19.5372 137.942C17.9682 132.594 15.0022 127.935 15.0022 122.304V118.069C15.0022 115.985 14.8857 114.776 16.3404 113.183C17.4448 111.973 18.3477 110.549 18.3477 108.948C18.3477 105.247 21.0709 102.738 24.3696 101.31C27.1905 100.089 31.5489 98.3607 34.4062 98.1971C42.1472 97.7537 49.689 98.1971 57.4902 98.1971C61.5031 98.1971 65.7917 100.385 69.8685 100.803C74.5562 101.284 80.3556 103.158 84.5888 105.219C91.0071 108.344 99.5243 113.951 102.989 120.024C105.117 123.753 106 126.426 106 130.775C106 135.105 104.662 139.185 104.662 143.299C104.662 150.482 99.8485 157.805 92.2091 160.094C83.7826 162.619 75.438 166.61 66.523 166.61C64.7378 166.61 63.1005 167.913 61.1702 167.913C58.4312 167.913 58.4938 168.256 58.4938 170.845C58.4938 175.321 61.1668 178.979 62.5084 183.224C63.7755 187.234 66.285 191.337 66.523 195.278C66.6435 197.272 68.0105 203.93 69.3481 205.558C70.7009 207.205 69.8864 214.011 68.8649 215.802C66.961 219.139 65.2304 221.342 62.1739 223.657C56.6104 227.87 43.9939 227.806 37.7517 225.105C33.1157 223.098 21.0241 224.331 21.0241 217.105C21.0241 213.018 24.1559 210.752 24.3696 207.006C24.584 203.249 25.0387 199.63 25.0387 195.93C25.0387 184.589 26.2833 172.631 25.0016 161.397C24.1165 153.64 21.7328 145.425 19.5372 137.942Z" fill="#9AADBF"/>
<path d="M13.4373 104.11C14.1311 107.093 16.7845 108.581 19.6632 111.486C22.9836 114.182 31.7496 112.906 33.0481 110.549C35.1992 106.644 37.1122 101.227 37.3584 96.758C37.6747 91.0155 39.3382 63.7929 48.8834 66.8328C51.1123 67.5427 60.007 80.078 61.6672 81.4263C63.0784 82.2988 66.0668 83.6471 68.3912 83.0919C71.8777 81.4263 72.9525 80.5314 74.119 77.0641C75.754 72.2043 76.95 62.9383 80.76 59.2981C85.6442 54.6315 91.0861 55.1276 96.6982 59.2981C104.415 65.0327 106.824 75.8405 106.824 85.5527C106.824 88.8455 108.263 98.0743 112.738 99.2959C115.573 100.07 122.13 99.9811 124.867 98.6734C129.356 96.5291 133.884 96.1024 135.492 90.9159C137.463 84.5615 133.149 77.1358 131.884 71.0911C130.085 62.4973 131.182 53.0897 131.182 44.3707C131.182 36.34 127.081 27.9945 127.081 20.0383C127.081 16.6228 123.227 11.5824 120.807 9.27032C116.877 5.51476 103.988 1.87962 99.0226 3.14474C90.7026 5.26453 88.9781 7.66556 85.6234 13.5801C81.8996 16.0432 75.2029 36.811 73.2651 40.9769C71.443 44.8938 67.1278 46.5122 64.2224 43.1183C59.4379 40.6569 52.4196 21.1881 50.8906 16.5969C47.9644 7.80999 43.1364 0.219868 32.8476 0.219868C28.6304 0.219868 23.1621 -0.653743 19.3154 1.08182C11.3172 4.6904 6.2386 9.92991 3.07665 17.6504C-1.13617 27.9367 0.116924 39.9937 0.370199 50.8832C0.571029 59.5178 4.38923 67.9728 7.08621 76.0713C9.03955 81.9367 9.7809 87.8725 11.1459 93.7412C11.6044 95.7123 11.0039 97.4225 11.8977 99.3438C12.5071 100.654 12.7732 102.628 13.4373 104.11Z" fill="#C17767"/>
<path d="M111.774 202.135C112.036 209.514 112.844 217.579 116.269 224.857C118.461 227 120.809 227 122.018 227C126.176 227 132.751 225.827 135.728 222.312C138.988 218.464 138.723 211.465 138.723 206.614C138.723 200.077 138.487 193.451 136.753 187.233C134.217 178.139 130.255 165.748 133.207 156.34C134.209 153.146 133.681 146.582 139.077 149.767C145.134 153.342 148.615 159.194 151.803 165.967C158.652 180.522 162.737 194.029 176.688 200.766C181.814 203.242 184.494 206.106 189.495 208.763C195.045 211.711 201.96 219.274 207.925 218.671C221.015 217.346 211.231 192.841 212.045 181.154C213.25 163.88 216.498 146.367 216.498 128.896C216.498 121.598 222.675 113.064 218.621 106.843C214.276 100.173 215.714 98 207.933 98C203.318 98 194.459 98.4992 194.459 105.158C194.459 112.759 193.082 129.296 194.459 136.611C197.252 151.452 196.908 172.297 186.631 182.609C183.063 186.19 176.688 174.273 171.961 168.159C165.798 160.187 161.135 154.279 158.225 145.623C154.442 134.369 153.136 115.692 139.747 112.847C129.3 110.627 114.121 114.312 108.386 124.693C105.548 129.831 106.101 136.16 106.101 141.856C106.101 148.984 105.714 156.242 106.455 163.33C107.277 171.185 107.825 179.136 109.095 186.898C109.928 191.984 111.59 196.941 111.774 202.135Z" fill="#6D98BA" stroke="#6D98BA" stroke-width="3.125" stroke-linecap="round"/>
</svg>
