<svg width="258" height="258" viewBox="0 0 258 258" fill="none" xmlns="http://www.w3.org/2000/svg">
<rect width="243" height="243" rx="40.625" fill="white"/>
<path d="M161.33 17.0658C177.283 7.98789 196.349 5.02109 212.343 11.4271C218.228 13.3199 219.924 19.3415 214.065 23.7027C206.131 29.6086 184.925 20.4197 185.817 33.7716C186.27 40.5343 195.194 42.7034 200.452 45.2165C205.588 47.6711 211.118 49.8947 215.804 53.1079C224.758 59.2465 228 71.4725 228 81.4893C228 116.191 193.279 119.964 164.334 120.98C155.23 121.299 145.507 117.767 137.053 114.504C135.431 113.878 130.267 109.116 129.358 106.934C127.93 103.503 131.139 98.6805 132.527 96.5968C136.958 89.9455 143.232 93.9657 151.421 93.7521C165.245 93.3916 171.725 100.154 183.665 92.4727C192.649 86.6933 202.613 72.7243 191.652 63.4913C185.555 58.3551 175.966 58.0986 168.409 56.6613C161.646 55.3752 156.484 52.6923 150.18 49.8632C143.208 46.734 144.016 37.4081 146.026 31.9257C148.368 25.5403 155.534 20.3646 161.33 17.0658Z" fill="#D3B99F"/>
<path d="M27.5372 145.942C25.9682 140.594 23.0022 135.935 23.0022 130.304V126.069C23.0022 123.985 22.8857 122.776 24.3404 121.183C25.4448 119.973 26.3477 118.549 26.3477 116.948C26.3477 113.247 29.0709 110.738 32.3696 109.31C35.1905 108.089 39.5489 106.361 42.4062 106.197C50.1472 105.754 57.689 106.197 65.4902 106.197C69.5031 106.197 73.7917 108.385 77.8685 108.803C82.5562 109.284 88.3556 111.158 92.5888 113.219C99.0071 116.344 107.524 121.951 110.989 128.024C113.117 131.753 114 134.426 114 138.775C114 143.105 112.662 147.185 112.662 151.299C112.662 158.482 107.849 165.805 100.209 168.094C91.7826 170.619 83.438 174.61 74.523 174.61C72.7378 174.61 71.1005 175.913 69.1702 175.913C66.4312 175.913 66.4938 176.256 66.4938 178.845C66.4938 183.321 69.1668 186.979 70.5084 191.224C71.7755 195.234 74.285 199.337 74.523 203.278C74.6435 205.272 76.0105 211.93 77.3481 213.558C78.7009 215.205 77.8864 222.011 76.8649 223.802C74.961 227.139 73.2304 229.342 70.1739 231.657C64.6104 235.87 51.9939 235.806 45.7517 233.105C41.1157 231.098 29.0241 232.331 29.0241 225.105C29.0241 221.018 32.1559 218.752 32.3696 215.006C32.584 211.249 33.0387 207.63 33.0387 203.93C33.0387 192.589 34.2833 180.631 33.0016 169.397C32.1165 161.64 29.7328 153.425 27.5372 145.942Z" fill="#9AADBF"/>
<path d="M55.831 136.449C55.0856 135.283 52.8535 133.684 53.1661 132.769C52.3147 133.371 54.8636 129.514 57.8993 129.514C60.5055 129.514 63.2718 129 65.5816 129C71.9869 129 74.9341 131.153 80.3553 133.51C85.0708 135.559 89.1874 138.78 89.8105 143.385C90.0789 145.369 92.3473 147.845 89.8105 150.05C88.324 151.343 87.7525 151.73 85.9365 152.632C81.8248 154.675 75.6603 156.228 71.7866 157.77C69.8705 158.532 68.5215 160.327 66.2316 157.321C65.9267 156.345 64.3377 154.783 64.0784 153.769C62.9785 149.466 62.2232 145.496 59.6722 141.615C58.4872 139.813 56.9811 138.249 55.831 136.449Z" fill="white"/>
<path d="M21.4373 112.11C22.1311 115.093 24.7845 116.581 27.6632 119.486C30.9836 122.182 39.7496 120.906 41.0481 118.549C43.1992 114.644 45.1122 109.227 45.3584 104.758C45.6747 99.0155 47.3382 71.7929 56.8834 74.8328C59.1123 75.5427 68.007 88.078 69.6672 89.4263C71.0784 90.2988 74.0668 91.6471 76.3912 91.0919C79.8777 89.4263 80.9525 88.5314 82.119 85.0641C83.754 80.2043 84.95 70.9383 88.76 67.2981C93.6442 62.6315 99.0861 63.1276 104.698 67.2981C112.415 73.0327 114.824 83.8405 114.824 93.5527C114.824 96.8455 116.263 106.074 120.738 107.296C123.573 108.07 130.13 107.981 132.867 106.673C137.356 104.529 141.884 104.102 143.492 98.9159C145.463 92.5615 141.149 85.1358 139.884 79.0911C138.085 70.4973 139.182 61.0897 139.182 52.3707C139.182 44.34 135.081 35.9945 135.081 28.0383C135.081 24.6228 131.227 19.5824 128.807 17.2703C124.877 13.5148 111.988 9.87962 107.023 11.1447C98.7026 13.2645 96.9781 15.6656 93.6234 21.5801C89.8996 24.0432 83.2029 44.811 81.2651 48.9769C79.443 52.8938 75.1278 54.5122 72.2224 51.1183C67.4379 48.6569 60.4196 29.1881 58.8906 24.5969C55.9644 15.81 51.1364 8.21987 40.8476 8.21987C36.6304 8.21987 31.1621 7.34626 27.3154 9.08182C19.3172 12.6904 14.2386 17.9299 11.0766 25.6504C6.86383 35.9367 8.11692 47.9937 8.3702 58.8832C8.57103 67.5178 12.3892 75.9728 15.0862 84.0713C17.0395 89.9367 17.7809 95.8725 19.1459 101.741C19.6044 103.712 19.0039 105.423 19.8977 107.344C20.5071 108.654 20.7732 110.628 21.4373 112.11Z" fill="#C17767"/>
<path d="M119.774 210.135C120.036 217.514 120.844 225.579 124.269 232.857C126.461 235 128.809 235 130.018 235C134.176 235 140.751 233.827 143.728 230.312C146.988 226.464 146.723 219.465 146.723 214.614C146.723 208.077 146.487 201.451 144.753 195.233C142.217 186.139 138.255 173.748 141.207 164.34C142.209 161.146 141.681 154.582 147.077 157.767C153.134 161.342 156.615 167.194 159.803 173.967C166.652 188.522 170.737 202.029 184.688 208.766C189.814 211.242 192.494 214.106 197.495 216.763C203.045 219.711 209.96 227.274 215.925 226.671C229.015 225.346 219.231 200.841 220.045 189.154C221.25 171.88 224.498 154.367 224.498 136.896C224.498 129.598 230.675 121.064 226.621 114.843C222.276 108.173 223.714 106 215.933 106C211.318 106 202.459 106.499 202.459 113.158C202.459 120.759 201.082 137.296 202.459 144.611C205.252 159.452 204.908 180.297 194.631 190.609C191.063 194.19 184.688 182.273 179.961 176.159C173.798 168.187 169.135 162.279 166.225 153.623C162.442 142.369 161.136 123.692 147.747 120.847C137.3 118.627 122.121 122.312 116.386 132.693C113.548 137.831 114.101 144.16 114.101 149.856C114.101 156.984 113.714 164.242 114.455 171.33C115.277 179.185 115.825 187.136 117.095 194.898C117.928 199.984 119.59 204.941 119.774 210.135Z" fill="#6D98BA" stroke="#6D98BA" stroke-width="3.125" stroke-linecap="round"/>
</svg>
