<svg width="830" height="723" viewBox="0 0 830 723" fill="none" xmlns="http://www.w3.org/2000/svg">
<path d="M85.9358 661.325C90.1148 680.131 106.097 689.513 123.436 707.825C143.436 724.825 196.235 716.78 204.056 701.92C217.013 677.302 228.535 643.153 230.018 614.978C231.923 578.777 241.943 407.161 299.436 426.325C312.861 430.8 366.436 509.825 376.436 518.325C384.936 523.825 402.936 532.325 416.936 528.825C437.936 518.325 444.41 512.683 451.436 490.825C461.284 460.188 468.488 401.773 491.436 378.825C520.854 349.406 553.632 352.533 587.436 378.825C633.917 414.977 648.425 483.111 648.425 544.338C648.425 565.097 657.092 623.276 684.047 630.978C701.124 635.857 740.614 635.297 757.102 627.054C784.139 613.535 811.413 610.845 821.101 578.149C832.971 538.089 806.987 491.277 799.366 453.17C788.53 398.994 795.139 339.686 795.139 284.72C795.139 234.093 770.436 181.482 770.436 131.325C770.436 109.793 747.226 78.0172 732.65 63.4416C708.974 39.766 631.344 16.8494 601.436 24.825C551.323 38.1884 540.936 53.325 520.729 90.6109C498.3 106.139 457.965 237.062 446.292 263.325C435.318 288.018 409.326 298.22 391.826 276.825C363.008 261.308 320.735 138.573 311.526 109.629C293.901 54.2354 264.82 6.38608 202.849 6.38608C177.447 6.38608 144.511 0.878696 121.341 11.8199C73.1662 34.5691 42.5765 67.5998 23.5314 116.271C-1.84342 181.117 5.70426 257.127 7.22979 325.776C8.43944 380.21 31.4374 433.512 47.6819 484.566C59.4473 521.543 63.9126 558.963 72.1342 595.96C74.8957 608.386 71.2792 619.168 76.6624 631.28C80.3332 639.539 81.9358 651.984 85.9358 661.325Z" fill="white" stroke="white" stroke-width="10" stroke-linecap="round"/>
</svg>
