<svg width="843" height="897" viewBox="0 0 843 897" fill="none" xmlns="http://www.w3.org/2000/svg">
<path d="M47.1461 720.382C49.0591 771.076 54.9569 826.477 79.9569 876.477C95.9569 891.199 113.095 891.199 121.915 891.199C152.267 891.199 200.254 883.141 221.989 858.991C245.781 832.556 243.845 784.479 243.845 751.152C243.845 706.242 242.123 660.722 229.466 618.006C210.957 555.536 182.041 470.41 203.585 405.779C210.898 383.838 207.049 338.75 246.433 360.63C290.638 385.189 316.052 425.387 339.318 471.92C389.312 571.907 419.13 664.694 520.957 710.979C558.373 727.986 577.932 747.663 614.432 765.914C654.942 786.168 705.421 838.125 748.957 833.979C844.503 824.879 773.084 656.533 779.031 576.246C787.822 457.577 811.531 337.271 811.531 217.246C811.531 167.112 856.62 108.485 827.031 65.7466C795.311 19.9281 805.809 5 749.016 5C715.328 5 650.666 8.42934 650.666 54.1747C650.666 106.391 640.617 219.999 650.666 270.246C671.057 372.201 668.546 515.4 593.531 586.246C567.487 610.844 520.957 528.979 486.457 486.978C441.471 432.211 407.43 391.627 386.193 332.161C358.58 254.845 349.047 126.537 251.322 106.992C175.068 91.7414 64.2744 117.059 22.415 188.375C1.69858 223.67 5.73585 267.15 5.73585 306.279C5.73585 355.248 2.91337 405.108 8.32399 453.803C14.3194 507.762 18.3185 562.387 27.5913 615.706C33.6676 650.645 45.7997 684.701 47.1461 720.382Z" fill="white" stroke="white" stroke-width="10" stroke-linecap="round"/>
</svg>
