<svg width="555" height="808" viewBox="0 0 555 808" fill="none" xmlns="http://www.w3.org/2000/svg">
<path fill-rule="evenodd" clip-rule="evenodd" d="M16.2752 217.804C20.364 228.373 24.4894 239.036 27.6723 250.177C41.063 297.047 55.6005 348.507 60.9987 397.094C66.249 444.349 64.5492 493.653 62.8667 542.457C62.044 566.319 61.2254 590.063 61.2254 613.389C61.2254 628.389 60.064 643.173 58.89 658.117C58.2499 666.265 57.606 674.461 57.1446 682.766C56.5259 693.905 51.8959 702.954 47.2028 712.127C42.0104 722.275 36.7407 732.575 36.7407 746.022C36.7407 777.794 73.0779 783.458 104.518 788.359C117.867 790.439 130.333 792.382 138.76 796.128C176.831 813.049 253.778 813.451 287.709 787.059C306.35 772.559 316.905 758.762 328.517 737.86C334.747 726.645 339.714 684.011 331.464 673.697C323.306 663.499 314.969 621.8 314.234 609.308C313.295 593.343 306.561 576.954 299.83 560.572C296.154 551.625 292.479 542.681 289.749 533.809C286.934 524.658 283.157 515.945 279.414 507.308C272.279 490.844 265.265 474.66 265.265 456.269C265.265 455.908 265.264 455.553 265.264 455.206C265.256 439.96 265.255 437.904 281.588 437.904C287.589 437.904 293.126 435.783 298.555 433.704C303.776 431.704 308.896 429.742 314.234 429.742C354.307 429.742 392.491 416.164 430.378 402.691C443.896 397.884 457.376 393.091 470.891 388.932C517.483 374.595 546.839 328.726 546.839 283.732C546.839 271.012 548.827 258.345 550.841 245.516C552.907 232.355 555 219.022 555 205.286C555 178.047 549.612 161.306 536.637 137.949C515.506 99.9107 463.56 64.7924 424.415 45.2188C398.597 32.3091 363.228 20.5681 334.638 17.5585C323.506 16.3866 312.116 12.9922 300.733 9.60011C286.691 5.41543 272.661 1.23435 259.143 1.23435C243.211 1.23435 227.456 0.922916 211.774 0.612912C180.624 -0.002846 149.759 -0.612964 118.356 1.23435C100.93 2.25949 74.3485 13.086 57.1446 20.7326C37.026 29.6747 20.4176 45.3946 20.4176 68.5713C20.4176 78.6001 14.9108 87.52 8.17524 95.098C-0.0675761 104.372 -0.0389412 111.564 0.00661852 123.007C0.010098 123.881 0.0136761 124.779 0.0136761 125.706V152.232C0.0136761 175.77 8.07078 196.596 16.2752 217.804ZM161.244 135.12C164.478 138.949 167.686 142.748 169.549 146.098C173.642 153.456 178.388 160.317 183.147 167.196C187.622 173.665 192.108 180.15 196.074 187.081C211.471 213.993 217.394 241.441 223.714 270.723C224.625 274.943 225.543 279.2 226.5 283.5C227.432 287.69 230.854 293.058 234.218 298.334C237.313 303.191 240.36 307.969 241.369 311.68C253.999 330.725 262.484 325.477 272.13 319.51C274.561 318.007 277.065 316.458 279.728 315.24C290.101 310.497 302.854 305.74 316.237 300.748C337.362 292.868 360.056 284.403 377.437 274.483C389.978 267.326 393.924 264.252 404.188 254C416.838 241.365 412.185 227.609 407.924 215.014C406.285 210.168 404.703 205.493 404.188 201.12C399.886 164.591 371.46 139.037 338.897 122.776C331.311 118.987 324.426 115.265 317.902 111.738C292.233 97.8593 272.147 87 236.88 87C229.146 87 220.67 87.9584 211.939 88.9456C202.664 89.9944 193.101 91.0757 183.832 91.0757C162.869 91.0757 145.268 121.68 151.147 116.902C149.77 121.531 155.546 128.371 161.244 135.12Z" fill="white"/>
</svg>
