<svg width="653" height="772" viewBox="0 0 653 772" fill="none" xmlns="http://www.w3.org/2000/svg">
<path d="M213.251 61.9363C318.473 -0.0827569 444.234 -20.3515 549.727 23.4138C588.542 36.3451 599.728 77.4837 561.083 107.279C508.75 147.627 368.877 84.8495 374.766 176.068C377.748 222.27 436.615 237.089 471.296 254.258C505.17 271.027 541.644 286.218 572.558 308.171C631.615 350.109 653 433.635 653 502.068C653 739.145 423.979 764.924 233.062 771.862C173.015 774.044 108.881 749.914 53.1197 727.622C42.4209 723.345 8.35783 690.813 2.36412 675.901C-7.05634 652.462 14.1071 619.516 23.2635 605.281C52.492 559.84 93.8763 587.305 147.888 585.846C239.073 583.383 281.813 629.581 360.57 577.105C419.829 537.622 485.546 442.187 413.252 379.109C373.035 344.019 309.789 342.266 259.939 332.447C215.331 323.661 181.281 305.332 139.702 286.003C93.7121 264.625 99.0429 200.912 112.304 163.457C127.749 119.833 175.015 84.4729 213.251 61.9363Z" fill="white"/>
</svg>
